<mxfile host="app.diagrams.net" modified="2023-08-23T14:07:03.184Z" agent="Mozilla/5.0 (Windows NT 10.0; Win64; x64) AppleWebKit/537.36 (KHTML, like Gecko) Chrome/115.0.0.0 Safari/537.36 Edg/115.0.1901.203" etag="aiNcBdemMNSQ4W8_ynbA" version="21.6.8" type="github">
  <diagram id="C5RBs43oDa-KdzZeNtuy" name="Page-1">
    <mxGraphModel dx="1166" dy="775" grid="1" gridSize="10" guides="1" tooltips="1" connect="1" arrows="1" fold="1" page="1" pageScale="1" pageWidth="827" pageHeight="1169" math="0" shadow="0">
      <root>
        <mxCell id="WIyWlLk6GJQsqaUBKTNV-0" />
        <mxCell id="WIyWlLk6GJQsqaUBKTNV-1" parent="WIyWlLk6GJQsqaUBKTNV-0" />
        <mxCell id="JPXvTSORxzWnUjppaz0d-0" value="CustInfoManage" style="swimlane;fontStyle=1;align=center;verticalAlign=top;childLayout=stackLayout;horizontal=1;startSize=26;horizontalStack=0;resizeParent=1;resizeParentMax=0;resizeLast=0;collapsible=1;marginBottom=0;whiteSpace=wrap;html=1;" parent="WIyWlLk6GJQsqaUBKTNV-1" vertex="1">
          <mxGeometry x="210" y="320" width="286" height="160" as="geometry" />
        </mxCell>
        <mxCell id="JPXvTSORxzWnUjppaz0d-1" value="- custId: String&lt;br&gt;- ecifNo: String&lt;br&gt;- channelId: String" style="text;strokeColor=none;fillColor=none;align=left;verticalAlign=top;spacingLeft=4;spacingRight=4;overflow=hidden;rotatable=0;points=[[0,0.5],[1,0.5]];portConstraint=eastwest;whiteSpace=wrap;html=1;" parent="JPXvTSORxzWnUjppaz0d-0" vertex="1">
          <mxGeometry y="26" width="286" height="54" as="geometry" />
        </mxCell>
        <mxCell id="JPXvTSORxzWnUjppaz0d-2" value="" style="line;strokeWidth=1;fillColor=none;align=left;verticalAlign=middle;spacingTop=-1;spacingLeft=3;spacingRight=3;rotatable=0;labelPosition=right;points=[];portConstraint=eastwest;strokeColor=inherit;" parent="JPXvTSORxzWnUjppaz0d-0" vertex="1">
          <mxGeometry y="80" width="286" height="8" as="geometry" />
        </mxCell>
        <mxCell id="JPXvTSORxzWnUjppaz0d-3" value="+ getCustInfo(String ecifNo): Map&amp;lt;Integer, String&amp;gt;&lt;br&gt;+ checkIsOldCust(String custId): boolean&lt;br&gt;+ addCustInfo(): void&lt;br&gt;+ getAccountNumByCustId(String custId): int" style="text;strokeColor=none;fillColor=none;align=left;verticalAlign=top;spacingLeft=4;spacingRight=4;overflow=hidden;rotatable=0;points=[[0,0.5],[1,0.5]];portConstraint=eastwest;whiteSpace=wrap;html=1;" parent="JPXvTSORxzWnUjppaz0d-0" vertex="1">
          <mxGeometry y="88" width="286" height="72" as="geometry" />
        </mxCell>
        <mxCell id="9bOCLUyIO7LpmUojsbxt-0" value="CreditRatingModel" style="swimlane;fontStyle=1;align=center;verticalAlign=top;childLayout=stackLayout;horizontal=1;startSize=26;horizontalStack=0;resizeParent=1;resizeParentMax=0;resizeLast=0;collapsible=1;marginBottom=0;whiteSpace=wrap;html=1;" parent="WIyWlLk6GJQsqaUBKTNV-1" vertex="1">
          <mxGeometry x="284" y="90" width="226" height="140" as="geometry" />
        </mxCell>
        <mxCell id="9bOCLUyIO7LpmUojsbxt-1" value="- custId: String&lt;br&gt;- creditId: String&lt;br&gt;- creditLevel: String" style="text;strokeColor=none;fillColor=none;align=left;verticalAlign=top;spacingLeft=4;spacingRight=4;overflow=hidden;rotatable=0;points=[[0,0.5],[1,0.5]];portConstraint=eastwest;whiteSpace=wrap;html=1;" parent="9bOCLUyIO7LpmUojsbxt-0" vertex="1">
          <mxGeometry y="26" width="226" height="54" as="geometry" />
        </mxCell>
        <mxCell id="9bOCLUyIO7LpmUojsbxt-2" value="" style="line;strokeWidth=1;fillColor=none;align=left;verticalAlign=middle;spacingTop=-1;spacingLeft=3;spacingRight=3;rotatable=0;labelPosition=right;points=[];portConstraint=eastwest;strokeColor=inherit;" parent="9bOCLUyIO7LpmUojsbxt-0" vertex="1">
          <mxGeometry y="80" width="226" height="8" as="geometry" />
        </mxCell>
        <mxCell id="9bOCLUyIO7LpmUojsbxt-3" value="+ getCreditLevel(String custId): String&lt;br&gt;+ updateCreditLevel(String custId): void&lt;br&gt;+ createCreditInfo(): void" style="text;strokeColor=none;fillColor=none;align=left;verticalAlign=top;spacingLeft=4;spacingRight=4;overflow=hidden;rotatable=0;points=[[0,0.5],[1,0.5]];portConstraint=eastwest;whiteSpace=wrap;html=1;" parent="9bOCLUyIO7LpmUojsbxt-0" vertex="1">
          <mxGeometry y="88" width="226" height="52" as="geometry" />
        </mxCell>
        <mxCell id="9bOCLUyIO7LpmUojsbxt-4" value="" style="endArrow=diamondThin;endFill=1;endSize=24;html=1;rounded=0;entryX=0.5;entryY=0;entryDx=0;entryDy=0;exitX=0.504;exitY=1.006;exitDx=0;exitDy=0;exitPerimeter=0;" parent="WIyWlLk6GJQsqaUBKTNV-1" source="9bOCLUyIO7LpmUojsbxt-3" target="JPXvTSORxzWnUjppaz0d-0" edge="1">
          <mxGeometry width="160" relative="1" as="geometry">
            <mxPoint x="400" y="230" as="sourcePoint" />
            <mxPoint x="470" y="280" as="targetPoint" />
          </mxGeometry>
        </mxCell>
        <mxCell id="9bOCLUyIO7LpmUojsbxt-6" value="CustCreditDataManage" style="swimlane;fontStyle=1;align=center;verticalAlign=top;childLayout=stackLayout;horizontal=1;startSize=26;horizontalStack=0;resizeParent=1;resizeParentMax=0;resizeLast=0;collapsible=1;marginBottom=0;whiteSpace=wrap;html=1;" parent="WIyWlLk6GJQsqaUBKTNV-1" vertex="1">
          <mxGeometry x="28" y="95" width="226" height="130" as="geometry" />
        </mxCell>
        <mxCell id="9bOCLUyIO7LpmUojsbxt-7" value="- custId: String&lt;br&gt;- creditNo: String" style="text;strokeColor=none;fillColor=none;align=left;verticalAlign=top;spacingLeft=4;spacingRight=4;overflow=hidden;rotatable=0;points=[[0,0.5],[1,0.5]];portConstraint=eastwest;whiteSpace=wrap;html=1;" parent="9bOCLUyIO7LpmUojsbxt-6" vertex="1">
          <mxGeometry y="26" width="226" height="44" as="geometry" />
        </mxCell>
        <mxCell id="9bOCLUyIO7LpmUojsbxt-8" value="" style="line;strokeWidth=1;fillColor=none;align=left;verticalAlign=middle;spacingTop=-1;spacingLeft=3;spacingRight=3;rotatable=0;labelPosition=right;points=[];portConstraint=eastwest;strokeColor=inherit;" parent="9bOCLUyIO7LpmUojsbxt-6" vertex="1">
          <mxGeometry y="70" width="226" height="8" as="geometry" />
        </mxCell>
        <mxCell id="9bOCLUyIO7LpmUojsbxt-9" value="+ getAssetInfo(String creditNo): String&lt;br&gt;+ getMarryInfo(String creditNo): String&lt;br&gt;+ getDebtInfo(String credtNo): void" style="text;strokeColor=none;fillColor=none;align=left;verticalAlign=top;spacingLeft=4;spacingRight=4;overflow=hidden;rotatable=0;points=[[0,0.5],[1,0.5]];portConstraint=eastwest;whiteSpace=wrap;html=1;" parent="9bOCLUyIO7LpmUojsbxt-6" vertex="1">
          <mxGeometry y="78" width="226" height="52" as="geometry" />
        </mxCell>
        <mxCell id="9bOCLUyIO7LpmUojsbxt-10" value="" style="endArrow=diamondThin;endFill=1;endSize=24;html=1;rounded=0;exitX=0.475;exitY=1;exitDx=0;exitDy=0;exitPerimeter=0;entryX=0;entryY=0;entryDx=0;entryDy=0;" parent="WIyWlLk6GJQsqaUBKTNV-1" source="9bOCLUyIO7LpmUojsbxt-9" target="JPXvTSORxzWnUjppaz0d-0" edge="1">
          <mxGeometry width="160" relative="1" as="geometry">
            <mxPoint x="60" y="280" as="sourcePoint" />
            <mxPoint x="220" y="280" as="targetPoint" />
          </mxGeometry>
        </mxCell>
        <mxCell id="9bOCLUyIO7LpmUojsbxt-11" value="CustRelatedInfoManage" style="swimlane;fontStyle=1;align=center;verticalAlign=top;childLayout=stackLayout;horizontal=1;startSize=26;horizontalStack=0;resizeParent=1;resizeParentMax=0;resizeLast=0;collapsible=1;marginBottom=0;whiteSpace=wrap;html=1;" parent="WIyWlLk6GJQsqaUBKTNV-1" vertex="1">
          <mxGeometry x="560" y="100" width="190" height="130" as="geometry" />
        </mxCell>
        <mxCell id="9bOCLUyIO7LpmUojsbxt-12" value="- custId: String&lt;br&gt;- relatedPersonId: String&lt;br&gt;- relation: String" style="text;strokeColor=none;fillColor=none;align=left;verticalAlign=top;spacingLeft=4;spacingRight=4;overflow=hidden;rotatable=0;points=[[0,0.5],[1,0.5]];portConstraint=eastwest;whiteSpace=wrap;html=1;" parent="9bOCLUyIO7LpmUojsbxt-11" vertex="1">
          <mxGeometry y="26" width="190" height="54" as="geometry" />
        </mxCell>
        <mxCell id="9bOCLUyIO7LpmUojsbxt-13" value="" style="line;strokeWidth=1;fillColor=none;align=left;verticalAlign=middle;spacingTop=-1;spacingLeft=3;spacingRight=3;rotatable=0;labelPosition=right;points=[];portConstraint=eastwest;strokeColor=inherit;" parent="9bOCLUyIO7LpmUojsbxt-11" vertex="1">
          <mxGeometry y="80" width="190" height="8" as="geometry" />
        </mxCell>
        <mxCell id="9bOCLUyIO7LpmUojsbxt-14" value="+ updateRelatedPerson(): void&lt;br&gt;+ relieveRelation(): void" style="text;strokeColor=none;fillColor=none;align=left;verticalAlign=top;spacingLeft=4;spacingRight=4;overflow=hidden;rotatable=0;points=[[0,0.5],[1,0.5]];portConstraint=eastwest;whiteSpace=wrap;html=1;" parent="9bOCLUyIO7LpmUojsbxt-11" vertex="1">
          <mxGeometry y="88" width="190" height="42" as="geometry" />
        </mxCell>
        <mxCell id="9bOCLUyIO7LpmUojsbxt-15" value="" style="endArrow=diamondThin;endFill=1;endSize=24;html=1;rounded=0;entryX=1;entryY=0;entryDx=0;entryDy=0;" parent="WIyWlLk6GJQsqaUBKTNV-1" target="JPXvTSORxzWnUjppaz0d-0" edge="1">
          <mxGeometry width="160" relative="1" as="geometry">
            <mxPoint x="650" y="230" as="sourcePoint" />
            <mxPoint x="540" y="320" as="targetPoint" />
          </mxGeometry>
        </mxCell>
        <mxCell id="0jc5ZxIVJfhT72apnX45-2" value="ReportBankService" style="swimlane;fontStyle=1;align=center;verticalAlign=top;childLayout=stackLayout;horizontal=1;startSize=26;horizontalStack=0;resizeParent=1;resizeParentMax=0;resizeLast=0;collapsible=1;marginBottom=0;whiteSpace=wrap;html=1;" parent="WIyWlLk6GJQsqaUBKTNV-1" vertex="1">
          <mxGeometry x="570" y="330" width="210" height="140" as="geometry" />
        </mxCell>
        <mxCell id="0jc5ZxIVJfhT72apnX45-3" value="- custId: String&lt;br&gt;- custFlag: boolean" style="text;strokeColor=none;fillColor=none;align=left;verticalAlign=top;spacingLeft=4;spacingRight=4;overflow=hidden;rotatable=0;points=[[0,0.5],[1,0.5]];portConstraint=eastwest;whiteSpace=wrap;html=1;" parent="0jc5ZxIVJfhT72apnX45-2" vertex="1">
          <mxGeometry y="26" width="210" height="44" as="geometry" />
        </mxCell>
        <mxCell id="0jc5ZxIVJfhT72apnX45-4" value="" style="line;strokeWidth=1;fillColor=none;align=left;verticalAlign=middle;spacingTop=-1;spacingLeft=3;spacingRight=3;rotatable=0;labelPosition=right;points=[];portConstraint=eastwest;strokeColor=inherit;" parent="0jc5ZxIVJfhT72apnX45-2" vertex="1">
          <mxGeometry y="70" width="210" height="8" as="geometry" />
        </mxCell>
        <mxCell id="0jc5ZxIVJfhT72apnX45-5" value="+ reportForNewCust(): void&lt;br&gt;+ reportForUpdateCust(): void&lt;br&gt;+ createEcifNo(String custId): String" style="text;strokeColor=none;fillColor=none;align=left;verticalAlign=top;spacingLeft=4;spacingRight=4;overflow=hidden;rotatable=0;points=[[0,0.5],[1,0.5]];portConstraint=eastwest;whiteSpace=wrap;html=1;" parent="0jc5ZxIVJfhT72apnX45-2" vertex="1">
          <mxGeometry y="78" width="210" height="62" as="geometry" />
        </mxCell>
        <mxCell id="0jc5ZxIVJfhT72apnX45-8" value="OpenAccountService" style="swimlane;fontStyle=1;align=center;verticalAlign=top;childLayout=stackLayout;horizontal=1;startSize=26;horizontalStack=0;resizeParent=1;resizeParentMax=0;resizeLast=0;collapsible=1;marginBottom=0;whiteSpace=wrap;html=1;" parent="WIyWlLk6GJQsqaUBKTNV-1" vertex="1">
          <mxGeometry x="28" y="525" width="292" height="140" as="geometry" />
        </mxCell>
        <mxCell id="0jc5ZxIVJfhT72apnX45-9" value="- acctNo: String&lt;br&gt;- custId: String&lt;br&gt;- productCd: String" style="text;strokeColor=none;fillColor=none;align=left;verticalAlign=top;spacingLeft=4;spacingRight=4;overflow=hidden;rotatable=0;points=[[0,0.5],[1,0.5]];portConstraint=eastwest;whiteSpace=wrap;html=1;" parent="0jc5ZxIVJfhT72apnX45-8" vertex="1">
          <mxGeometry y="26" width="292" height="54" as="geometry" />
        </mxCell>
        <mxCell id="0jc5ZxIVJfhT72apnX45-10" value="" style="line;strokeWidth=1;fillColor=none;align=left;verticalAlign=middle;spacingTop=-1;spacingLeft=3;spacingRight=3;rotatable=0;labelPosition=right;points=[];portConstraint=eastwest;strokeColor=inherit;" parent="0jc5ZxIVJfhT72apnX45-8" vertex="1">
          <mxGeometry y="80" width="292" height="8" as="geometry" />
        </mxCell>
        <mxCell id="0jc5ZxIVJfhT72apnX45-11" value="+ createAccount(String ecifNo): void&lt;br&gt;+ closeAccount(String acctNo): void&lt;br&gt;+ getApprovalResult(OpenApproval result): boolean" style="text;strokeColor=none;fillColor=none;align=left;verticalAlign=top;spacingLeft=4;spacingRight=4;overflow=hidden;rotatable=0;points=[[0,0.5],[1,0.5]];portConstraint=eastwest;whiteSpace=wrap;html=1;" parent="0jc5ZxIVJfhT72apnX45-8" vertex="1">
          <mxGeometry y="88" width="292" height="52" as="geometry" />
        </mxCell>
        <mxCell id="0jc5ZxIVJfhT72apnX45-12" value="" style="endArrow=open;endFill=1;endSize=12;html=1;rounded=0;entryX=0.5;entryY=0;entryDx=0;entryDy=0;exitX=-0.005;exitY=0.458;exitDx=0;exitDy=0;exitPerimeter=0;" parent="WIyWlLk6GJQsqaUBKTNV-1" source="JPXvTSORxzWnUjppaz0d-2" target="0jc5ZxIVJfhT72apnX45-8" edge="1">
          <mxGeometry width="160" relative="1" as="geometry">
            <mxPoint x="130" y="420" as="sourcePoint" />
            <mxPoint x="70" y="470" as="targetPoint" />
          </mxGeometry>
        </mxCell>
        <mxCell id="0jc5ZxIVJfhT72apnX45-15" value="" style="endArrow=none;endFill=0;endSize=12;html=1;rounded=0;entryX=1;entryY=0.5;entryDx=0;entryDy=0;exitX=0;exitY=0.5;exitDx=0;exitDy=0;" parent="WIyWlLk6GJQsqaUBKTNV-1" source="0jc5ZxIVJfhT72apnX45-3" target="JPXvTSORxzWnUjppaz0d-1" edge="1">
          <mxGeometry width="160" relative="1" as="geometry">
            <mxPoint x="620" y="480" as="sourcePoint" />
            <mxPoint x="522" y="599" as="targetPoint" />
          </mxGeometry>
        </mxCell>
        <mxCell id="0jc5ZxIVJfhT72apnX45-16" value="OpenApproval" style="swimlane;fontStyle=1;align=center;verticalAlign=top;childLayout=stackLayout;horizontal=1;startSize=26;horizontalStack=0;resizeParent=1;resizeParentMax=0;resizeLast=0;collapsible=1;marginBottom=0;whiteSpace=wrap;html=1;" parent="WIyWlLk6GJQsqaUBKTNV-1" vertex="1">
          <mxGeometry x="496" y="525" width="252" height="120" as="geometry" />
        </mxCell>
        <mxCell id="0jc5ZxIVJfhT72apnX45-17" value="- acctNo: String&lt;br&gt;- custId: String" style="text;strokeColor=none;fillColor=none;align=left;verticalAlign=top;spacingLeft=4;spacingRight=4;overflow=hidden;rotatable=0;points=[[0,0.5],[1,0.5]];portConstraint=eastwest;whiteSpace=wrap;html=1;" parent="0jc5ZxIVJfhT72apnX45-16" vertex="1">
          <mxGeometry y="26" width="252" height="44" as="geometry" />
        </mxCell>
        <mxCell id="0jc5ZxIVJfhT72apnX45-18" value="" style="line;strokeWidth=1;fillColor=none;align=left;verticalAlign=middle;spacingTop=-1;spacingLeft=3;spacingRight=3;rotatable=0;labelPosition=right;points=[];portConstraint=eastwest;strokeColor=inherit;" parent="0jc5ZxIVJfhT72apnX45-16" vertex="1">
          <mxGeometry y="70" width="252" height="8" as="geometry" />
        </mxCell>
        <mxCell id="0jc5ZxIVJfhT72apnX45-19" value="+ checkCustChannel(String custId): boolean&lt;br&gt;+ checkIsAllowOpen(String custId): boolean" style="text;strokeColor=none;fillColor=none;align=left;verticalAlign=top;spacingLeft=4;spacingRight=4;overflow=hidden;rotatable=0;points=[[0,0.5],[1,0.5]];portConstraint=eastwest;whiteSpace=wrap;html=1;" parent="0jc5ZxIVJfhT72apnX45-16" vertex="1">
          <mxGeometry y="78" width="252" height="42" as="geometry" />
        </mxCell>
        <mxCell id="0jc5ZxIVJfhT72apnX45-20" value="" style="endArrow=open;endFill=1;endSize=12;html=1;rounded=0;entryX=0;entryY=0.5;entryDx=0;entryDy=0;exitX=1;exitY=0.5;exitDx=0;exitDy=0;" parent="WIyWlLk6GJQsqaUBKTNV-1" source="0jc5ZxIVJfhT72apnX45-9" target="0jc5ZxIVJfhT72apnX45-17" edge="1">
          <mxGeometry width="160" relative="1" as="geometry">
            <mxPoint x="262" y="416" as="sourcePoint" />
            <mxPoint x="164" y="535" as="targetPoint" />
          </mxGeometry>
        </mxCell>
        <mxCell id="hgWKNQkWk1CnTSaawmc3-0" value="CustInfoManage" style="swimlane;fontStyle=1;align=center;verticalAlign=top;childLayout=stackLayout;horizontal=1;startSize=26;horizontalStack=0;resizeParent=1;resizeParentMax=0;resizeLast=0;collapsible=1;marginBottom=0;whiteSpace=wrap;html=1;" vertex="1" parent="WIyWlLk6GJQsqaUBKTNV-1">
          <mxGeometry x="210" y="320" width="286" height="160" as="geometry" />
        </mxCell>
        <mxCell id="hgWKNQkWk1CnTSaawmc3-1" value="- custId: String&lt;br&gt;- ecifNo: String&lt;br&gt;- channelId: String" style="text;strokeColor=none;fillColor=none;align=left;verticalAlign=top;spacingLeft=4;spacingRight=4;overflow=hidden;rotatable=0;points=[[0,0.5],[1,0.5]];portConstraint=eastwest;whiteSpace=wrap;html=1;" vertex="1" parent="hgWKNQkWk1CnTSaawmc3-0">
          <mxGeometry y="26" width="286" height="54" as="geometry" />
        </mxCell>
        <mxCell id="hgWKNQkWk1CnTSaawmc3-2" value="" style="line;strokeWidth=1;fillColor=none;align=left;verticalAlign=middle;spacingTop=-1;spacingLeft=3;spacingRight=3;rotatable=0;labelPosition=right;points=[];portConstraint=eastwest;strokeColor=inherit;" vertex="1" parent="hgWKNQkWk1CnTSaawmc3-0">
          <mxGeometry y="80" width="286" height="8" as="geometry" />
        </mxCell>
        <mxCell id="hgWKNQkWk1CnTSaawmc3-3" value="+ getCustInfo(String ecifNo): Map&amp;lt;Integer, String&amp;gt;&lt;br&gt;+ checkIsOldCust(String custId): boolean&lt;br&gt;+ addCustInfo(): void&lt;br&gt;+ getAccountNumByCustId(String custId): int" style="text;strokeColor=none;fillColor=none;align=left;verticalAlign=top;spacingLeft=4;spacingRight=4;overflow=hidden;rotatable=0;points=[[0,0.5],[1,0.5]];portConstraint=eastwest;whiteSpace=wrap;html=1;" vertex="1" parent="hgWKNQkWk1CnTSaawmc3-0">
          <mxGeometry y="88" width="286" height="72" as="geometry" />
        </mxCell>
        <mxCell id="hgWKNQkWk1CnTSaawmc3-8" value="UserManage" style="swimlane;fontStyle=1;align=center;verticalAlign=top;childLayout=stackLayout;horizontal=1;startSize=26;horizontalStack=0;resizeParent=1;resizeParentMax=0;resizeLast=0;collapsible=1;marginBottom=0;whiteSpace=wrap;html=1;" vertex="1" parent="WIyWlLk6GJQsqaUBKTNV-1">
          <mxGeometry x="284" y="784" width="216" height="86" as="geometry" />
        </mxCell>
        <mxCell id="hgWKNQkWk1CnTSaawmc3-9" value="- userId: String" style="text;strokeColor=none;fillColor=none;align=left;verticalAlign=top;spacingLeft=4;spacingRight=4;overflow=hidden;rotatable=0;points=[[0,0.5],[1,0.5]];portConstraint=eastwest;whiteSpace=wrap;html=1;" vertex="1" parent="hgWKNQkWk1CnTSaawmc3-8">
          <mxGeometry y="26" width="216" height="26" as="geometry" />
        </mxCell>
        <mxCell id="hgWKNQkWk1CnTSaawmc3-10" value="" style="line;strokeWidth=1;fillColor=none;align=left;verticalAlign=middle;spacingTop=-1;spacingLeft=3;spacingRight=3;rotatable=0;labelPosition=right;points=[];portConstraint=eastwest;strokeColor=inherit;" vertex="1" parent="hgWKNQkWk1CnTSaawmc3-8">
          <mxGeometry y="52" width="216" height="8" as="geometry" />
        </mxCell>
        <mxCell id="hgWKNQkWk1CnTSaawmc3-11" value="+ verifyBankAcct(Bank bank): boolean" style="text;strokeColor=none;fillColor=none;align=left;verticalAlign=top;spacingLeft=4;spacingRight=4;overflow=hidden;rotatable=0;points=[[0,0.5],[1,0.5]];portConstraint=eastwest;whiteSpace=wrap;html=1;" vertex="1" parent="hgWKNQkWk1CnTSaawmc3-8">
          <mxGeometry y="60" width="216" height="26" as="geometry" />
        </mxCell>
        <mxCell id="hgWKNQkWk1CnTSaawmc3-12" value="Bank" style="swimlane;fontStyle=1;align=center;verticalAlign=top;childLayout=stackLayout;horizontal=1;startSize=26;horizontalStack=0;resizeParent=1;resizeParentMax=0;resizeLast=0;collapsible=1;marginBottom=0;whiteSpace=wrap;html=1;" vertex="1" parent="WIyWlLk6GJQsqaUBKTNV-1">
          <mxGeometry x="28" y="780" width="160" height="90" as="geometry" />
        </mxCell>
        <mxCell id="hgWKNQkWk1CnTSaawmc3-13" value="+ acctNo: String&lt;br&gt;+ bankCode: String&lt;br&gt;" style="text;strokeColor=none;fillColor=none;align=left;verticalAlign=top;spacingLeft=4;spacingRight=4;overflow=hidden;rotatable=0;points=[[0,0.5],[1,0.5]];portConstraint=eastwest;whiteSpace=wrap;html=1;" vertex="1" parent="hgWKNQkWk1CnTSaawmc3-12">
          <mxGeometry y="26" width="160" height="34" as="geometry" />
        </mxCell>
        <mxCell id="hgWKNQkWk1CnTSaawmc3-14" value="" style="line;strokeWidth=1;fillColor=none;align=left;verticalAlign=middle;spacingTop=-1;spacingLeft=3;spacingRight=3;rotatable=0;labelPosition=right;points=[];portConstraint=eastwest;strokeColor=inherit;" vertex="1" parent="hgWKNQkWk1CnTSaawmc3-12">
          <mxGeometry y="60" width="160" height="8" as="geometry" />
        </mxCell>
        <mxCell id="hgWKNQkWk1CnTSaawmc3-15" value="+ getAcctNo(): void" style="text;strokeColor=none;fillColor=none;align=left;verticalAlign=top;spacingLeft=4;spacingRight=4;overflow=hidden;rotatable=0;points=[[0,0.5],[1,0.5]];portConstraint=eastwest;whiteSpace=wrap;html=1;" vertex="1" parent="hgWKNQkWk1CnTSaawmc3-12">
          <mxGeometry y="68" width="160" height="22" as="geometry" />
        </mxCell>
        <mxCell id="hgWKNQkWk1CnTSaawmc3-16" value="" style="endArrow=open;endFill=1;endSize=12;html=1;rounded=0;entryX=1;entryY=0.5;entryDx=0;entryDy=0;exitX=0;exitY=0.5;exitDx=0;exitDy=0;" edge="1" parent="WIyWlLk6GJQsqaUBKTNV-1" source="hgWKNQkWk1CnTSaawmc3-9" target="hgWKNQkWk1CnTSaawmc3-13">
          <mxGeometry width="160" relative="1" as="geometry">
            <mxPoint x="240" y="920" as="sourcePoint" />
            <mxPoint x="400" y="920" as="targetPoint" />
          </mxGeometry>
        </mxCell>
        <mxCell id="hgWKNQkWk1CnTSaawmc3-17" value="CustRelatedInfo" style="swimlane;fontStyle=1;align=center;verticalAlign=top;childLayout=stackLayout;horizontal=1;startSize=26;horizontalStack=0;resizeParent=1;resizeParentMax=0;resizeLast=0;collapsible=1;marginBottom=0;whiteSpace=wrap;html=1;" vertex="1" parent="WIyWlLk6GJQsqaUBKTNV-1">
          <mxGeometry x="590" y="780" width="180" height="120" as="geometry" />
        </mxCell>
        <mxCell id="hgWKNQkWk1CnTSaawmc3-18" value="- userId: String&lt;br&gt;- relatedEcifNo: String" style="text;strokeColor=none;fillColor=none;align=left;verticalAlign=top;spacingLeft=4;spacingRight=4;overflow=hidden;rotatable=0;points=[[0,0.5],[1,0.5]];portConstraint=eastwest;whiteSpace=wrap;html=1;" vertex="1" parent="hgWKNQkWk1CnTSaawmc3-17">
          <mxGeometry y="26" width="180" height="34" as="geometry" />
        </mxCell>
        <mxCell id="hgWKNQkWk1CnTSaawmc3-19" value="" style="line;strokeWidth=1;fillColor=none;align=left;verticalAlign=middle;spacingTop=-1;spacingLeft=3;spacingRight=3;rotatable=0;labelPosition=right;points=[];portConstraint=eastwest;strokeColor=inherit;" vertex="1" parent="hgWKNQkWk1CnTSaawmc3-17">
          <mxGeometry y="60" width="180" height="8" as="geometry" />
        </mxCell>
        <mxCell id="hgWKNQkWk1CnTSaawmc3-20" value="+ buildRelation(): void&lt;br&gt;+ updateRelatedPerson(): void&lt;br style=&quot;border-color: var(--border-color);&quot;&gt;+ relieveRelation(): void" style="text;strokeColor=none;fillColor=none;align=left;verticalAlign=top;spacingLeft=4;spacingRight=4;overflow=hidden;rotatable=0;points=[[0,0.5],[1,0.5]];portConstraint=eastwest;whiteSpace=wrap;html=1;" vertex="1" parent="hgWKNQkWk1CnTSaawmc3-17">
          <mxGeometry y="68" width="180" height="52" as="geometry" />
        </mxCell>
        <mxCell id="hgWKNQkWk1CnTSaawmc3-21" value="" style="endArrow=block;endSize=16;endFill=0;html=1;rounded=0;entryX=1;entryY=0.5;entryDx=0;entryDy=0;exitX=0;exitY=0.5;exitDx=0;exitDy=0;" edge="1" parent="WIyWlLk6GJQsqaUBKTNV-1" source="hgWKNQkWk1CnTSaawmc3-18" target="hgWKNQkWk1CnTSaawmc3-9">
          <mxGeometry width="160" relative="1" as="geometry">
            <mxPoint x="530" y="930" as="sourcePoint" />
            <mxPoint x="690" y="930" as="targetPoint" />
          </mxGeometry>
        </mxCell>
        <mxCell id="hgWKNQkWk1CnTSaawmc3-22" value="CustInfoManage" style="swimlane;fontStyle=1;align=center;verticalAlign=top;childLayout=stackLayout;horizontal=1;startSize=26;horizontalStack=0;resizeParent=1;resizeParentMax=0;resizeLast=0;collapsible=1;marginBottom=0;whiteSpace=wrap;html=1;" vertex="1" parent="WIyWlLk6GJQsqaUBKTNV-1">
          <mxGeometry x="271.5" y="930" width="241" height="110" as="geometry" />
        </mxCell>
        <mxCell id="hgWKNQkWk1CnTSaawmc3-23" value="- cust: Customer" style="text;strokeColor=none;fillColor=none;align=left;verticalAlign=top;spacingLeft=4;spacingRight=4;overflow=hidden;rotatable=0;points=[[0,0.5],[1,0.5]];portConstraint=eastwest;whiteSpace=wrap;html=1;" vertex="1" parent="hgWKNQkWk1CnTSaawmc3-22">
          <mxGeometry y="26" width="241" height="24" as="geometry" />
        </mxCell>
        <mxCell id="hgWKNQkWk1CnTSaawmc3-24" value="" style="line;strokeWidth=1;fillColor=none;align=left;verticalAlign=middle;spacingTop=-1;spacingLeft=3;spacingRight=3;rotatable=0;labelPosition=right;points=[];portConstraint=eastwest;strokeColor=inherit;" vertex="1" parent="hgWKNQkWk1CnTSaawmc3-22">
          <mxGeometry y="50" width="241" height="8" as="geometry" />
        </mxCell>
        <mxCell id="hgWKNQkWk1CnTSaawmc3-25" value="+ updatetCustInfo(String ecifNo): void&lt;br&gt;+ checkIsOldCust(String custId): boolean&lt;br&gt;+ mainTainCreditInfo(String ecifNo): void" style="text;strokeColor=none;fillColor=none;align=left;verticalAlign=top;spacingLeft=4;spacingRight=4;overflow=hidden;rotatable=0;points=[[0,0.5],[1,0.5]];portConstraint=eastwest;whiteSpace=wrap;html=1;" vertex="1" parent="hgWKNQkWk1CnTSaawmc3-22">
          <mxGeometry y="58" width="241" height="52" as="geometry" />
        </mxCell>
        <mxCell id="hgWKNQkWk1CnTSaawmc3-26" value="" style="endArrow=block;endSize=16;endFill=0;html=1;rounded=0;exitX=0.5;exitY=0;exitDx=0;exitDy=0;" edge="1" parent="WIyWlLk6GJQsqaUBKTNV-1" source="hgWKNQkWk1CnTSaawmc3-22" target="hgWKNQkWk1CnTSaawmc3-11">
          <mxGeometry width="160" relative="1" as="geometry">
            <mxPoint x="380" y="910" as="sourcePoint" />
            <mxPoint x="410" y="860" as="targetPoint" />
          </mxGeometry>
        </mxCell>
        <mxCell id="hgWKNQkWk1CnTSaawmc3-27" value="Customer" style="swimlane;fontStyle=1;align=center;verticalAlign=top;childLayout=stackLayout;horizontal=1;startSize=26;horizontalStack=0;resizeParent=1;resizeParentMax=0;resizeLast=0;collapsible=1;marginBottom=0;whiteSpace=wrap;html=1;" vertex="1" parent="WIyWlLk6GJQsqaUBKTNV-1">
          <mxGeometry x="28" y="920" width="160" height="120" as="geometry" />
        </mxCell>
        <mxCell id="hgWKNQkWk1CnTSaawmc3-28" value="+ userId: String&lt;br&gt;+ ecifNo: String&lt;br&gt;+ channelId: String&lt;br&gt;+ acctNum: int" style="text;strokeColor=none;fillColor=none;align=left;verticalAlign=top;spacingLeft=4;spacingRight=4;overflow=hidden;rotatable=0;points=[[0,0.5],[1,0.5]];portConstraint=eastwest;whiteSpace=wrap;html=1;" vertex="1" parent="hgWKNQkWk1CnTSaawmc3-27">
          <mxGeometry y="26" width="160" height="64" as="geometry" />
        </mxCell>
        <mxCell id="hgWKNQkWk1CnTSaawmc3-29" value="" style="line;strokeWidth=1;fillColor=none;align=left;verticalAlign=middle;spacingTop=-1;spacingLeft=3;spacingRight=3;rotatable=0;labelPosition=right;points=[];portConstraint=eastwest;strokeColor=inherit;" vertex="1" parent="hgWKNQkWk1CnTSaawmc3-27">
          <mxGeometry y="90" width="160" height="8" as="geometry" />
        </mxCell>
        <mxCell id="hgWKNQkWk1CnTSaawmc3-30" value="+ getUserId(): void" style="text;strokeColor=none;fillColor=none;align=left;verticalAlign=top;spacingLeft=4;spacingRight=4;overflow=hidden;rotatable=0;points=[[0,0.5],[1,0.5]];portConstraint=eastwest;whiteSpace=wrap;html=1;" vertex="1" parent="hgWKNQkWk1CnTSaawmc3-27">
          <mxGeometry y="98" width="160" height="22" as="geometry" />
        </mxCell>
        <mxCell id="hgWKNQkWk1CnTSaawmc3-31" value="" style="endArrow=open;endFill=1;endSize=12;html=1;rounded=0;exitX=0.001;exitY=-0.019;exitDx=0;exitDy=0;exitPerimeter=0;entryX=0.988;entryY=0.651;entryDx=0;entryDy=0;entryPerimeter=0;" edge="1" parent="WIyWlLk6GJQsqaUBKTNV-1" source="hgWKNQkWk1CnTSaawmc3-25" target="hgWKNQkWk1CnTSaawmc3-28">
          <mxGeometry width="160" relative="1" as="geometry">
            <mxPoint x="160" y="1090" as="sourcePoint" />
            <mxPoint x="190" y="987" as="targetPoint" />
          </mxGeometry>
        </mxCell>
        <mxCell id="hgWKNQkWk1CnTSaawmc3-32" value="AccountManage" style="swimlane;fontStyle=1;align=center;verticalAlign=top;childLayout=stackLayout;horizontal=1;startSize=26;horizontalStack=0;resizeParent=1;resizeParentMax=0;resizeLast=0;collapsible=1;marginBottom=0;whiteSpace=wrap;html=1;" vertex="1" parent="WIyWlLk6GJQsqaUBKTNV-1">
          <mxGeometry x="488" y="1060" width="292" height="110" as="geometry" />
        </mxCell>
        <mxCell id="hgWKNQkWk1CnTSaawmc3-33" value="- acct : Account&amp;nbsp;" style="text;strokeColor=none;fillColor=none;align=left;verticalAlign=top;spacingLeft=4;spacingRight=4;overflow=hidden;rotatable=0;points=[[0,0.5],[1,0.5]];portConstraint=eastwest;whiteSpace=wrap;html=1;" vertex="1" parent="hgWKNQkWk1CnTSaawmc3-32">
          <mxGeometry y="26" width="292" height="24" as="geometry" />
        </mxCell>
        <mxCell id="hgWKNQkWk1CnTSaawmc3-34" value="" style="line;strokeWidth=1;fillColor=none;align=left;verticalAlign=middle;spacingTop=-1;spacingLeft=3;spacingRight=3;rotatable=0;labelPosition=right;points=[];portConstraint=eastwest;strokeColor=inherit;" vertex="1" parent="hgWKNQkWk1CnTSaawmc3-32">
          <mxGeometry y="50" width="292" height="8" as="geometry" />
        </mxCell>
        <mxCell id="hgWKNQkWk1CnTSaawmc3-35" value="+ approveUserFromChannel(String acctNo): boolean&lt;br&gt;+ approvelUserEligibility(String acctNo): boolean&lt;br&gt;+ updateAcctInfo(Account acct): void" style="text;strokeColor=none;fillColor=none;align=left;verticalAlign=top;spacingLeft=4;spacingRight=4;overflow=hidden;rotatable=0;points=[[0,0.5],[1,0.5]];portConstraint=eastwest;whiteSpace=wrap;html=1;" vertex="1" parent="hgWKNQkWk1CnTSaawmc3-32">
          <mxGeometry y="58" width="292" height="52" as="geometry" />
        </mxCell>
        <mxCell id="hgWKNQkWk1CnTSaawmc3-36" value="" style="endArrow=diamondThin;endFill=1;endSize=24;html=1;rounded=0;entryX=1;entryY=0.5;entryDx=0;entryDy=0;edgeStyle=orthogonalEdgeStyle;" edge="1" parent="WIyWlLk6GJQsqaUBKTNV-1" target="hgWKNQkWk1CnTSaawmc3-23">
          <mxGeometry width="160" relative="1" as="geometry">
            <mxPoint x="677" y="900" as="sourcePoint" />
            <mxPoint x="760" y="950" as="targetPoint" />
            <Array as="points">
              <mxPoint x="677" y="968" />
            </Array>
          </mxGeometry>
        </mxCell>
        <mxCell id="hgWKNQkWk1CnTSaawmc3-37" value="n" style="text;html=1;align=center;verticalAlign=middle;resizable=0;points=[];autosize=1;strokeColor=none;fillColor=none;" vertex="1" parent="WIyWlLk6GJQsqaUBKTNV-1">
          <mxGeometry x="650" y="900" width="30" height="30" as="geometry" />
        </mxCell>
        <mxCell id="hgWKNQkWk1CnTSaawmc3-38" value="1" style="text;html=1;align=center;verticalAlign=middle;resizable=0;points=[];autosize=1;strokeColor=none;fillColor=none;" vertex="1" parent="WIyWlLk6GJQsqaUBKTNV-1">
          <mxGeometry x="540" y="940" width="30" height="30" as="geometry" />
        </mxCell>
        <mxCell id="hgWKNQkWk1CnTSaawmc3-41" value="" style="endArrow=diamondThin;endFill=1;endSize=24;html=1;rounded=0;entryX=1;entryY=0.5;entryDx=0;entryDy=0;exitX=0.5;exitY=0;exitDx=0;exitDy=0;edgeStyle=orthogonalEdgeStyle;" edge="1" parent="WIyWlLk6GJQsqaUBKTNV-1" source="hgWKNQkWk1CnTSaawmc3-32" target="hgWKNQkWk1CnTSaawmc3-25">
          <mxGeometry width="160" relative="1" as="geometry">
            <mxPoint x="650" y="1030" as="sourcePoint" />
            <mxPoint x="810" y="1030" as="targetPoint" />
          </mxGeometry>
        </mxCell>
        <mxCell id="hgWKNQkWk1CnTSaawmc3-42" value="n" style="text;html=1;align=center;verticalAlign=middle;resizable=0;points=[];autosize=1;strokeColor=none;fillColor=none;" vertex="1" parent="WIyWlLk6GJQsqaUBKTNV-1">
          <mxGeometry x="625" y="1028" width="30" height="30" as="geometry" />
        </mxCell>
        <mxCell id="hgWKNQkWk1CnTSaawmc3-43" value="1" style="text;html=1;align=center;verticalAlign=middle;resizable=0;points=[];autosize=1;strokeColor=none;fillColor=none;" vertex="1" parent="WIyWlLk6GJQsqaUBKTNV-1">
          <mxGeometry x="525" y="988" width="30" height="30" as="geometry" />
        </mxCell>
        <mxCell id="hgWKNQkWk1CnTSaawmc3-50" value="Account" style="swimlane;fontStyle=1;align=center;verticalAlign=top;childLayout=stackLayout;horizontal=1;startSize=26;horizontalStack=0;resizeParent=1;resizeParentMax=0;resizeLast=0;collapsible=1;marginBottom=0;whiteSpace=wrap;html=1;" vertex="1" parent="WIyWlLk6GJQsqaUBKTNV-1">
          <mxGeometry x="555" y="1220" width="160" height="110" as="geometry" />
        </mxCell>
        <mxCell id="hgWKNQkWk1CnTSaawmc3-51" value="+ acctNo: String&lt;br&gt;+ ecifNo: String&lt;br&gt;+ activeFlag: boolean" style="text;strokeColor=none;fillColor=none;align=left;verticalAlign=top;spacingLeft=4;spacingRight=4;overflow=hidden;rotatable=0;points=[[0,0.5],[1,0.5]];portConstraint=eastwest;whiteSpace=wrap;html=1;" vertex="1" parent="hgWKNQkWk1CnTSaawmc3-50">
          <mxGeometry y="26" width="160" height="54" as="geometry" />
        </mxCell>
        <mxCell id="hgWKNQkWk1CnTSaawmc3-52" value="" style="line;strokeWidth=1;fillColor=none;align=left;verticalAlign=middle;spacingTop=-1;spacingLeft=3;spacingRight=3;rotatable=0;labelPosition=right;points=[];portConstraint=eastwest;strokeColor=inherit;" vertex="1" parent="hgWKNQkWk1CnTSaawmc3-50">
          <mxGeometry y="80" width="160" height="8" as="geometry" />
        </mxCell>
        <mxCell id="hgWKNQkWk1CnTSaawmc3-53" value="+ getAcctNo(): void" style="text;strokeColor=none;fillColor=none;align=left;verticalAlign=top;spacingLeft=4;spacingRight=4;overflow=hidden;rotatable=0;points=[[0,0.5],[1,0.5]];portConstraint=eastwest;whiteSpace=wrap;html=1;" vertex="1" parent="hgWKNQkWk1CnTSaawmc3-50">
          <mxGeometry y="88" width="160" height="22" as="geometry" />
        </mxCell>
        <mxCell id="hgWKNQkWk1CnTSaawmc3-56" value="" style="endArrow=open;endFill=1;endSize=12;html=1;rounded=0;" edge="1" parent="WIyWlLk6GJQsqaUBKTNV-1" source="hgWKNQkWk1CnTSaawmc3-35" target="hgWKNQkWk1CnTSaawmc3-50">
          <mxGeometry width="160" relative="1" as="geometry">
            <mxPoint x="450" y="1210" as="sourcePoint" />
            <mxPoint x="610" y="1210" as="targetPoint" />
          </mxGeometry>
        </mxCell>
        <mxCell id="hgWKNQkWk1CnTSaawmc3-60" value="&amp;lt;&amp;lt;interface&amp;gt;&amp;gt;&lt;br&gt;SocialAccountInterface" style="swimlane;fontStyle=1;align=center;verticalAlign=top;childLayout=stackLayout;horizontal=1;startSize=40;horizontalStack=0;resizeParent=1;resizeParentMax=0;resizeLast=0;collapsible=1;marginBottom=0;whiteSpace=wrap;html=1;" vertex="1" parent="WIyWlLk6GJQsqaUBKTNV-1">
          <mxGeometry x="160" y="1060" width="240" height="110" as="geometry" />
        </mxCell>
        <mxCell id="hgWKNQkWk1CnTSaawmc3-61" value="" style="line;strokeWidth=1;fillColor=none;align=left;verticalAlign=middle;spacingTop=-1;spacingLeft=3;spacingRight=3;rotatable=0;labelPosition=right;points=[];portConstraint=eastwest;strokeColor=inherit;" vertex="1" parent="hgWKNQkWk1CnTSaawmc3-60">
          <mxGeometry y="40" width="240" height="20" as="geometry" />
        </mxCell>
        <mxCell id="hgWKNQkWk1CnTSaawmc3-62" value="+ connectExtAccount(): void&lt;br&gt;+ requestUserAuth(): void&lt;br&gt;+ getSocialAcctInfo(): void" style="text;strokeColor=none;fillColor=none;align=left;verticalAlign=top;spacingLeft=4;spacingRight=4;overflow=hidden;rotatable=0;points=[[0,0.5],[1,0.5]];portConstraint=eastwest;whiteSpace=wrap;html=1;" vertex="1" parent="hgWKNQkWk1CnTSaawmc3-60">
          <mxGeometry y="60" width="240" height="50" as="geometry" />
        </mxCell>
      </root>
    </mxGraphModel>
  </diagram>
</mxfile>
